<?xml version="1.0" encoding="utf-8"?>
<!-- Generator: Adobe Illustrator 25.0.0, SVG Export Plug-In . SVG Version: 6.00 Build 0)  -->
<svg version="1.1" id="Layer_1" xmlns="http://www.w3.org/2000/svg" xmlns:xlink="http://www.w3.org/1999/xlink" x="0px" y="0px"
	 viewBox="0 0 240.6 142.9" style="enable-background:new 0 0 240.6 142.9;" xml:space="preserve">
<style type="text/css">
	.st0{fill:#FFFFFF;}
	.st1{fill:#FF4545;}
</style>
<path class="st0" d="M225.8,83L38.6,138.7c-8.5,2.5-17.5-2.3-20-10.8L4.2,79.7c-2.5-8.5,2.3-17.5,10.8-20L202.3,4
	c8.5-2.5,17.5,2.3,20,10.8L236.6,63C239.2,71.5,234.3,80.5,225.8,83z"/>
<g id="Layer_2_1_">
	<g id="Layer_1-2">
		<g>
			<path class="st1" d="M212.1,7.9L8.7,67.5c-0.6,0.2-0.9,0.8-0.8,1.4c0,0,0,0,0,0L27,134.2c0.2,0.6,0.8,1,1.4,0.8l203.5-59.6
				c0.6-0.2,0.9-0.8,0.8-1.4L213.5,8.7C213.3,8.1,212.7,7.7,212.1,7.9z M229.6,73.2L29.2,132L10.9,69.7l200.4-58.7L229.6,73.2z
				 M209.9,0.4L6.5,60C1.7,61.4-1,66.4,0.4,71.2l19.1,65.3c1.4,4.8,6.4,7.5,11.2,6.1c0,0,0,0,0,0l203.4-59.6
				c4.8-1.4,7.5-6.4,6.1-11.2c0,0,0,0,0,0L221.1,6.5C219.7,1.7,214.7-1,209.9,0.4z M234.1,73.5c0.4,1.4-0.4,2.9-1.8,3.3L28.9,136.4
				c-1.4,0.4-2.9-0.4-3.3-1.8L6.5,69.4c-0.4-1.4,0.4-2.9,1.8-3.3L211.7,6.5c1.4-0.4,2.9,0.4,3.3,1.7c0,0,0,0,0,0L234.1,73.5z"/>
			<path class="st1" d="M66.5,64.7l3.6,12.4l-7.4,2.2c-0.7-1.2-1.7-2.1-2.9-2.8c-1.1-0.7-2.5-0.8-3.7-0.5c-0.6,0.1-1.1,0.5-1.5,1
				c-0.3,0.6-0.4,1.3-0.1,1.9c0.2,0.5,0.5,0.9,1,1.1c0.6,0.3,1.2,0.4,1.9,0.4c0.7,0.1,1.6,0.1,2.5,0.1s2,0,3,0.1s2.1,0.2,3.3,0.3
				c1.1,0.1,2.2,0.4,3.3,0.9c1.1,0.4,2.1,1,3.1,1.7c1,0.8,1.9,1.8,2.7,2.9c0.9,1.3,1.5,2.8,2,4.3c0.5,1.6,0.7,3.3,0.6,5
				c-0.1,1.7-0.5,3.3-1.1,4.8c-0.6,1.5-1.6,2.9-2.8,4c-1.3,1.2-2.8,2-4.4,2.5c-1.5,0.5-3,0.7-4.5,0.6c-1.5-0.2-2.9-0.6-4.3-1.2
				l-0.2,2.5l-7.8,2.3l-3.6-12.5l7.7-2.3c0.8,1.1,1.9,1.9,3.2,2.4c1.2,0.6,2.5,0.7,3.8,0.3c0.7-0.2,1.2-0.6,1.7-1.1
				c0.4-0.5,0.5-1.1,0.3-1.8c-0.1-0.5-0.5-1-0.9-1.2c-0.4-0.3-0.9-0.5-1.4-0.5c-0.5-0.1-1.1-0.1-1.6-0.1c-1,0-1.9,0-2.7,0
				s-1.6-0.1-2.5-0.2c-0.8-0.1-1.7-0.2-2.5-0.4c-0.8-0.2-1.5-0.4-2.2-0.6c-0.7-0.2-1.4-0.5-2.1-0.9c-0.6-0.4-1.3-0.8-1.8-1.3
				c-0.6-0.5-1.2-1.1-1.6-1.8c-0.5-0.7-0.9-1.5-1.3-2.3c-0.4-0.9-0.8-1.9-1.1-2.9c-1.1-3.8-1.1-7.1,0.1-9.9s3.6-4.7,7.2-5.8
				c2.6-0.9,5.5-0.9,8.1,0c0.1-0.6,0.2-1.1,0.3-1.7L66.5,64.7z"/>
			<path class="st1" d="M118.3,70.8c1.1,3.6,1.2,7.4,0.4,11c-0.8,3.5-2.5,6.7-5,9.3c-5.2,5.3-12.8,7.5-20,5.9
				c-3.5-0.8-6.7-2.6-9.2-5.2c-2.7-2.6-4.6-5.9-5.6-9.5c-1.2-3.8-1.4-7.8-0.6-11.6c0.7-3.5,2.5-6.6,5-9.1c5.4-5.1,12.9-7.3,20.2-5.9
				c3.5,0.7,6.6,2.5,9.1,5C115.3,63.6,117.3,67,118.3,70.8z M102,88.4c0.6-0.2,1.1-0.4,1.6-0.8c0.4-0.3,0.8-0.8,1-1.2
				c0.2-0.5,0.4-1,0.5-1.6c0.1-0.6,0.2-1.2,0.1-1.8c0-0.6-0.1-1.3-0.2-1.9c-0.1-0.7-0.2-1.3-0.4-1.9l-0.5-1.9
				c-0.2-0.6-0.3-1.2-0.5-1.7c-0.1-0.3-0.2-0.6-0.2-0.7c0-0.2-0.1-0.5-0.2-0.8c-0.2-0.6-0.4-1.2-0.5-1.8c-0.2-0.7-0.4-1.4-0.7-2
				c-0.3-0.7-0.6-1.3-0.8-1.9c-0.3-0.6-0.6-1.2-1.1-1.7c-0.4-0.5-0.8-0.9-1.3-1.2c-0.5-0.3-1.1-0.6-1.7-0.6c-1.3-0.1-2.6,0.2-3.6,1
				c-0.4,0.3-0.8,0.7-1,1.2c-0.2,0.5-0.4,1-0.6,1.5c-0.1,0.6-0.2,1.1-0.2,1.7c0,0.6,0.1,1.2,0.1,1.8c0.1,0.6,0.2,1.2,0.3,1.8
				c0.2,0.6,0.3,1.2,0.4,1.7c0.1,0.5,0.3,1.1,0.5,1.6l0.2,0.8c0.1,0.2,0.1,0.4,0.2,0.7c0.2,0.5,0.3,1,0.4,1.5
				c0.1,0.6,0.3,1.1,0.5,1.6c0.2,0.6,0.4,1.1,0.6,1.7c0.2,0.5,0.5,1.1,0.7,1.6c0.3,0.5,0.6,1,0.9,1.4c0.3,0.4,0.6,0.8,1,1.2
				c0.4,0.3,0.8,0.6,1.2,0.8c0.4,0.2,0.9,0.3,1.4,0.3C100.9,88.6,101.5,88.6,102,88.4z"/>
			<path class="st1" d="M142.9,75.3l4.6-1.3l-0.4-9l6.9-2l5,17l-30.6,9l-2.6-8.6l3.4-1l-6.4-21.9l-3.5,1l-2.5-8.5l20.9-6.1l2.5,8.5
				l-3.7,1.1L142.9,75.3z"/>
			<path class="st1" d="M161,70.1l3.9-1.2L158.5,47l-4.1,1.2l-2.4-8.5l20-5.8c6.6-1.9,12-1.7,16.3,0.6c4.3,2.3,7.3,6.7,9.2,13
				c0.8,2.5,1,5.2,0.9,7.8c-0.2,2.6-0.9,5-2,7.3c-1.2,2.4-3,4.6-5.1,6.2c-2.5,1.9-5.3,3.3-8.3,4.2l-19.3,5.7L161,70.1z M178.9,64.8
				c1.1-0.3,2.1-0.8,2.9-1.6c0.7-0.7,1.3-1.5,1.6-2.4c0.3-1,0.5-2,0.5-3c0.1-1,0-2.1-0.2-3.1c-0.2-1.1-0.4-2.1-0.7-3.1
				c-0.3-1-0.6-2-1-3c-0.4-0.9-0.9-1.9-1.4-2.7c-0.5-0.8-1.2-1.6-1.9-2.2c-0.8-0.6-1.6-1-2.6-1.1c-1.1-0.2-2.2-0.1-3.3,0.2l-1.1,0.3
				l6.4,21.9L178.9,64.8z"/>
		</g>
	</g>
</g>
</svg>
